HIERARCHY
ROOT Hips
{
	OFFSET 0.00000 0.00000 0.00000
	CHANNELS 6 Xposition Yposition Zposition Zrotation Yrotation Xrotation 
	JOINT LHipJoint
	{
		OFFSET 0 0 0
		CHANNELS 3 Zrotation Yrotation Xrotation
		JOINT LeftHip
		{
			OFFSET 1.77779 -1.88989 0.48267
			CHANNELS 3 Zrotation Yrotation Xrotation
			JOINT LeftKnee
			{
				OFFSET 2.53442 -6.96327 0.00000
				CHANNELS 3 Zrotation Yrotation Xrotation
				JOINT LeftAnkle
				{
					OFFSET 2.71068 -7.44755 0.00000
					CHANNELS 3 Zrotation Yrotation Xrotation
					JOINT LeftToe
					{
						OFFSET 0.17992 -0.49431 2.22524
						CHANNELS 3 Zrotation Yrotation Xrotation
						End Site
						{
							OFFSET 0.00000 -0.00000 1.14687
						}
					}
				}
			}
		}
	}
	JOINT RHipJoint
	{
		OFFSET 0 0 0
		CHANNELS 3 Zrotation Yrotation Xrotation
		JOINT RightHip
		{
			OFFSET -1.58469 -1.88989 0.48267
			CHANNELS 3 Zrotation Yrotation Xrotation
			JOINT RightKnee
			{
				OFFSET -2.60386 -7.15404 0.00000
				CHANNELS 3 Zrotation Yrotation Xrotation
				JOINT RightAnkle
				{
					OFFSET -2.73334 -7.50979 0.00000
					CHANNELS 3 Zrotation Yrotation Xrotation
					JOINT RightToe
					{
						OFFSET -0.25618 -0.70384 2.21822
						CHANNELS 3 Zrotation Yrotation Xrotation
						End Site
						{
							OFFSET -0.00000 -0.00000 1.16381
						}
					}
				}
			}
		}
	}
	JOINT lowerback
	{
		OFFSET 0 0 0
		CHANNELS 3 Zrotation Yrotation Xrotation
		JOINT Chest
		{
			OFFSET 0.03410 2.01612 -0.22230
			CHANNELS 3 Zrotation Yrotation Xrotation
			JOINT Chest2
			{
				OFFSET 0.03465 2.03012 0.00937
				CHANNELS 3 Zrotation Yrotation Xrotation
				JOINT lowerneck
				{
					OFFSET 0 0 0
					CHANNELS 3 Zrotation Yrotation Xrotation
					JOINT Neck
					{
						OFFSET -0.00219 1.70459 0.20857
						CHANNELS 3 Zrotation Yrotation Xrotation
						JOINT Head
						{
							OFFSET 0.02518 1.72339 -0.22179
							CHANNELS 3 Zrotation Yrotation Xrotation
							End Site
							{
								OFFSET 0.00282 1.74122 -0.09823
							}
						}
					}
				}
				JOINT LeftCollar
				{
					OFFSET 0 0 0
					CHANNELS 3 Zrotation Yrotation Xrotation
					JOINT LeftShoulder
					{
						OFFSET 3.36358 1.00547 -0.37661
CHANNELS 3 Zrotation Xrotation Yrotation
						JOINT LeftElbow
						{
OFFSET 0 -5.065070 0.000000
CHANNELS 3 Zrotation Xrotation Yrotation
							JOINT LeftWrist
							{
OFFSET 0 -3.601960 0.000000
CHANNELS 3 Zrotation Xrotation Yrotation
								JOINT lhand
								{
									OFFSET 0 0 0
CHANNELS 3 Zrotation Xrotation Yrotation
									JOINT LFingers
									{
OFFSET 0 -0.450350 0.000000
CHANNELS 3 Zrotation Xrotation Yrotation
										End Site
										{
OFFSET 0 -0.363080 0.000000
										}
									}
								}
								JOINT LThumb
								{
OFFSET 0 0.000000 0.000000
CHANNELS 3 Zrotation Xrotation Yrotation
									End Site
									{
OFFSET 0 -0.368620 0.368620
									}
								}
							}
						}
					}
				}
				JOINT RightCollar
				{
					OFFSET 0 0 0
					CHANNELS 3 Zrotation Yrotation Xrotation
					JOINT RightShoulder
					{
						OFFSET -3.50159 0.80383 -0.71526
CHANNELS 3 Zrotation Xrotation Yrotation
						JOINT RightElbow
						{
OFFSET 0 -5.363940 0.000000
CHANNELS 3 Zrotation Xrotation Yrotation
							JOINT RightWrist
							{
OFFSET 0 -3.580350 0.000000
CHANNELS 3 Zrotation Xrotation Yrotation
								JOINT rhand
								{
									OFFSET 0 0 0
CHANNELS 3 Zrotation Xrotation Yrotation
									JOINT RFingers
									{
OFFSET 0 -0.663750 0.000000
CHANNELS 3 Zrotation Xrotation Yrotation
										End Site
										{
OFFSET 0 -0.535130 0.000000
										}
									}
								}
								JOINT RThumb
								{
OFFSET 0 0.000000 0.000000
CHANNELS 3 Zrotation Xrotation Yrotation
									End Site
									{
OFFSET 0 -0.543300 0.543300
									}
								}
							}
						}
					}
				}
			}
		}
	}
}
MOTION
Frames: 10
Frame Time: 0.008333333333333333
0.343723 17.823801 10.799488 -6.383865 -7.281399 -1.652853 0.000000 0.000000 0.000000 -11.000497 -12.354885 -18.906835 0.609079 4.994653 13.893402 -0.002855 1.108346 -1.089656 0.022422 -0.961039 -2.641640 0.000000 0.000000 0.000000 31.535211 2.075121 13.439120 -2.903881 -10.535749 30.731700 -0.489510 3.335954 -12.465448 -0.167527 2.635654 -7.266022 6.319106 2.466511 8.017109 1.730110 3.933001 0.240756 -2.174506 1.844867 -3.943476 -1.456532 -3.287094 -15.370608 1.145004 -4.472516 20.623258 0.083805 -2.084491 9.068907 0.000000 0.000000 0.000000 1.216471 6.477664 -16.663147 9.114460 -15.342660 1.230277 26.619073 14.237986 -23.417708 0.000000 0.000000 0.000000 -7.125000 0.000000 0.000000 -2.783733 55.806092 0.739578 0.000000 0.000000 0.000000 -2.049967 -6.776120 13.777058 -14.660959 -23.671384 -3.088694 -20.928782 -5.725466 -21.811010 0.000000 0.000000 0.000000 7.125000 0.000000 0.000000 4.943661 6.858523 4.334555
0.359115 17.837544 10.959272 -5.934238 -6.931686 -1.581241 0.000000 0.000000 0.000000 -11.798045 -12.248886 -18.900930 0.641445 5.123746 14.261909 -0.000513 0.412272 -0.204613 0.016554 -0.829330 -2.279441 0.000000 0.000000 0.000000 30.813820 1.668936 13.022900 -3.063130 -10.795753 31.594984 -0.385889 3.376608 -11.045258 -0.179633 2.729777 -7.527377 5.920511 2.378745 7.770567 1.613513 3.766318 0.056650 -2.050288 1.763505 -4.027947 -1.556641 -3.290660 -15.537524 1.138475 -4.462177 21.198557 0.091401 -2.082791 9.301092 0.000000 0.000000 0.000000 1.177541 6.904026 -16.612129 9.197708 -15.475021 1.252399 26.810539 14.389910 -24.099955 0.000000 0.000000 0.000000 -7.125000 0.000000 0.000000 -2.792888 56.577639 0.793912 0.000000 0.000000 0.000000 -2.014354 -6.443136 13.397140 -14.483752 -23.421983 -3.017778 -20.829424 -5.282887 -21.958778 0.000000 0.000000 0.000000 7.125000 0.000000 0.000000 5.018966 6.720027 4.414545
0.372059 17.860373 11.122987 -5.071997 -6.588611 -1.716935 0.000000 0.000000 0.000000 -13.068009 -12.162477 -18.580683 0.673875 5.248844 14.619849 0.000411 0.189386 0.307511 0.019256 -0.894617 -2.458802 0.000000 0.000000 0.000000 29.663833 1.262494 12.725767 -3.254083 -11.093455 32.598039 -0.276082 3.258480 -9.286497 -0.176788 2.708228 -7.467495 5.054785 2.283375 7.557211 1.396388 3.542864 -0.009917 -1.763681 1.667708 -4.030578 -1.564535 -3.207167 -15.863674 1.149925 -4.357562 21.860528 0.098869 -2.026252 9.592821 0.000000 0.000000 0.000000 1.141768 7.365443 -16.753015 9.336247 -15.694635 1.289665 27.655498 13.730784 -23.686259 0.000000 0.000000 0.000000 -7.125000 0.000000 0.000000 -1.739481 56.318199 0.485186 0.000000 0.000000 0.000000 -1.932923 -6.117626 13.053566 -14.345853 -23.226905 -2.963230 -20.640106 -4.814144 -22.028829 0.000000 0.000000 0.000000 7.125000 0.000000 0.000000 5.144277 6.676644 4.530041
0.381138 17.880511 11.284843 -4.359778 -6.255269 -1.884131 0.000000 0.000000 0.000000 -14.152292 -11.956667 -18.189363 0.702245 5.355941 14.926819 0.001678 0.047553 0.726404 0.016431 -0.821768 -2.258486 0.000000 0.000000 0.000000 28.691995 0.856443 12.394980 -3.460689 -11.402702 33.654266 -0.182809 3.111297 -7.506164 -0.160198 2.575397 -7.098912 4.287134 2.193239 7.474409 1.231553 3.348025 -0.114198 -1.486660 1.582037 -4.137839 -1.573359 -3.158942 -15.957233 1.154429 -4.299513 22.341710 0.103890 -1.995491 9.779529 0.000000 0.000000 0.000000 1.125073 7.740525 -16.783451 9.373239 -15.753270 1.299588 28.129194 12.793625 -22.551508 0.000000 0.000000 0.000000 -7.125000 0.000000 0.000000 -0.918321 55.188563 0.242789 0.000000 0.000000 0.000000 -1.853889 -5.716005 12.724520 -14.197682 -23.016418 -2.905112 -20.454164 -4.299765 -21.811311 0.000000 0.000000 0.000000 7.125000 0.000000 0.000000 5.243761 6.931545 4.591927
0.387802 17.898367 11.444073 -3.781287 -5.932616 -2.095836 0.000000 0.000000 0.000000 -15.080570 -11.655109 -17.734349 0.727410 5.449237 15.194566 0.003301 -0.082531 1.112092 0.013682 -0.752687 -2.068570 0.000000 0.000000 0.000000 27.892414 0.476793 12.068110 -3.680150 -11.719972 34.751195 -0.107237 2.926023 -5.808794 -0.123827 2.225737 -6.131417 3.622899 2.107983 7.490856 1.112751 3.176291 -0.217006 -1.225631 1.505550 -4.292272 -1.572067 -3.150665 -15.889421 1.120842 -4.289047 22.662737 0.091955 -1.992838 9.879600 0.000000 0.000000 0.000000 1.109964 7.998568 -16.647317 9.329939 -15.684623 1.287924 28.264881 11.930975 -21.342816 0.000000 0.000000 0.000000 -7.125000 0.000000 0.000000 -0.455385 53.903524 0.098694 0.000000 0.000000 0.000000 -1.765185 -5.360329 12.254102 -14.000955 -22.735512 -2.828844 -20.282595 -3.668168 -21.506068 0.000000 0.000000 0.000000 7.125000 0.000000 0.000000 5.327234 7.275165 4.630159
0.392781 17.913515 11.598755 -3.370151 -5.625953 -2.384577 0.000000 0.000000 0.000000 -15.825963 -11.247599 -17.199182 0.749101 5.528179 15.421292 0.005435 -0.276471 1.521024 0.017522 -0.853107 -2.344652 0.000000 0.000000 0.000000 27.325884 0.164014 11.790178 -3.914272 -12.044344 35.890371 -0.057667 2.677251 -4.347948 -0.052922 1.451967 -3.994020 3.108854 2.029113 7.609268 1.050807 3.030356 -0.272407 -0.994283 1.440761 -4.445888 -1.543904 -3.203435 -15.679337 0.998163 -4.346013 22.784634 0.039612 -2.032025 9.880312 0.000000 0.000000 0.000000 1.076823 8.058094 -16.214276 9.199436 -15.477739 1.252862 27.968388 11.580148 -20.780197 0.000000 0.000000 0.000000 -7.125000 0.000000 0.000000 -0.637093 53.229462 0.128493 0.000000 0.000000 0.000000 -1.649049 -5.209914 11.406369 -13.692301 -22.292870 -2.710432 -20.143771 -2.790494 -21.309994 0.000000 0.000000 0.000000 7.125000 0.000000 0.000000 5.399775 7.499758 4.670127
0.398133 17.926235 11.749951 -3.083680 -5.298118 -2.618084 0.000000 0.000000 0.000000 -16.406651 -10.841523 -16.747582 0.770357 5.604131 15.639985 0.008751 -0.485917 1.999760 0.035000 -1.181872 -3.249603 0.000000 0.000000 0.000000 26.917956 -0.088176 11.395988 -4.171372 -12.381419 37.100287 -0.021112 2.323490 -2.624321 -0.030027 1.101512 -3.028367 2.790650 1.962821 7.658498 0.969683 2.911571 -0.261553 -0.889592 1.387928 -4.477828 -1.550550 -3.248545 -15.715595 1.023064 -4.417674 22.952487 0.037770 -2.061372 9.948960 0.000000 0.000000 0.000000 1.125319 7.954098 -15.783726 9.062707 -15.260207 1.216680 28.044645 11.756751 -20.689215 0.000000 0.000000 0.000000 -7.125000 0.000000 0.000000 -0.536840 53.144853 0.107541 0.000000 0.000000 0.000000 -1.475125 -5.166541 10.464546 -13.430785 -21.914616 -2.612195 -20.039695 -2.004669 -21.372716 0.000000 0.000000 0.000000 7.125000 0.000000 0.000000 5.470635 7.450049 4.737433
0.404740 17.936239 11.900518 -2.898362 -5.016824 -2.800805 0.000000 0.000000 0.000000 -16.828911 -10.467803 -16.352330 0.791149 5.677556 15.851660 0.011535 -0.674060 2.392022 0.046702 -1.394335 -3.834496 0.000000 0.000000 0.000000 26.609593 -0.266615 10.923743 -4.442622 -12.723571 38.348201 0.000038 1.929202 -0.663122 -0.024839 1.013844 -2.787004 2.589522 1.909001 7.662105 0.915484 2.818113 -0.207895 -0.822164 1.346777 -4.433847 -1.601942 -3.267359 -15.932699 1.097216 -4.450022 23.122329 0.062670 -2.069055 10.054740 0.000000 0.000000 0.000000 1.172592 7.722126 -15.294365 8.909333 -15.015653 1.176665 28.106522 12.296243 -20.885114 0.000000 0.000000 0.000000 -7.125000 0.000000 0.000000 -0.517291 53.371078 0.107091 0.000000 0.000000 0.000000 -1.323275 -5.116274 9.692792 -13.263847 -21.672556 -2.549914 -19.863561 -1.334399 -21.378321 0.000000 0.000000 0.000000 7.125000 0.000000 0.000000 5.582925 7.470078 4.833163
0.412736 17.943988 12.050676 -2.799154 -4.799864 -2.929105 0.000000 0.000000 0.000000 -17.104772 -10.126968 -16.015326 0.811516 5.748608 16.056736 0.013148 -0.842727 2.652284 0.049554 -1.436702 -3.951213 0.000000 0.000000 0.000000 26.379835 -0.354590 10.372095 -4.728403 -13.070502 39.634388 0.002985 1.499129 1.530720 -0.030418 1.119732 -3.078490 2.481302 1.870279 7.626780 0.892111 2.752335 -0.122381 -0.775402 1.318593 -4.330708 -1.700629 -3.260554 -16.302007 1.207341 -4.440088 23.281617 0.111149 -2.055769 10.187493 0.000000 0.000000 0.000000 1.208024 7.377588 -14.746941 8.736009 -14.738748 1.132041 28.081967 13.079205 -21.250144 0.000000 0.000000 0.000000 -7.125000 0.000000 0.000000 -0.626949 53.765194 0.135135 0.000000 0.000000 0.000000 -1.199803 -5.032102 9.109897 -13.195677 -21.573259 -2.524829 -19.599394 -0.770985 -21.289257 0.000000 0.000000 0.000000 7.125000 0.000000 0.000000 5.743807 7.601236 4.959244
0.421199 17.957998 12.197038 -2.579113 -4.706201 -2.970212 0.000000 0.000000 0.000000 -17.471957 -9.735176 -15.796423 0.832283 5.819726 16.262411 0.009165 -1.116107 2.571564 0.050408 -1.449361 -3.986132 0.000000 0.000000 0.000000 26.025380 -0.193507 9.674635 -5.047156 -13.433420 41.019493 -0.036699 0.967873 3.818817 -0.013350 0.702124 -1.929713 2.255714 1.876253 7.613836 0.829171 2.737116 -0.123661 -0.712320 1.315321 -4.332415 -1.833621 -3.296113 -16.485137 1.376817 -4.496698 23.360772 0.181343 -2.071060 10.259963 0.000000 0.000000 0.000000 1.282556 7.118646 -14.329475 8.531046 -14.409754 1.080622 27.904740 12.651712 -20.443020 0.000000 0.000000 0.000000 -7.125000 0.000000 0.000000 -0.629296 52.848405 0.121480 0.000000 0.000000 0.000000 -0.990003 -4.815972 8.254697 -13.119580 -21.462172 -2.496879 -19.320041 -0.074948 -21.369052 0.000000 0.000000 0.000000 7.125000 0.000000 0.000000 5.926937 7.559205 5.124026
